<?xml version="1.0" standalone="no"?>
<!DOCTYPE svg PUBLIC "-//W3C//DTD SVG 20010904//EN"
 "http://www.w3.org/TR/2001/REC-SVG-20010904/DTD/svg10.dtd">
<svg version="1.0" xmlns="http://www.w3.org/2000/svg"
 width="512.000000pt" height="512.000000pt" viewBox="0 0 512.000000 512.000000"
 preserveAspectRatio="xMidYMid meet">

<g transform="translate(0.000000,512.000000) scale(0.100000,-0.100000)"
fill="#000000" stroke="none">
<path d="M1282 4600 c-578 -73 -1032 -491 -1153 -1063 -29 -135 -32 -388 -5
-521 38 -192 98 -342 203 -501 60 -91 149 -183 997 -1031 903 -904 933 -933
1006 -968 150 -72 310 -72 460 0 73 35 103 64 1006 968 848 848 937 940 997
1031 157 239 222 460 220 755 0 240 -37 399 -139 604 -129 258 -357 481 -617
604 -448 213 -1001 159 -1392 -136 -33 -25 -115 -100 -182 -165 l-122 -120
-138 134 c-233 226 -425 332 -703 389 -119 24 -328 34 -438 20z m349 -315
c249 -43 390 -127 659 -391 102 -100 195 -186 207 -193 28 -14 98 -14 126 0
12 7 103 91 202 188 233 230 339 303 515 359 132 42 172 47 340 46 143 -1 177
-4 260 -26 190 -51 343 -141 481 -285 133 -138 215 -285 261 -470 19 -74 22
-115 22 -253 -1 -145 -4 -177 -26 -261 -31 -115 -79 -222 -144 -321 -69 -106
-1807 -1848 -1878 -1883 -65 -33 -127 -33 -192 0 -71 35 -1809 1777 -1878
1883 -65 99 -113 206 -144 321 -22 84 -25 116 -26 261 -1 183 16 275 73 411
113 270 374 505 646 584 155 45 345 57 496 30z"/>
</g>
</svg>
